<mxfile host="app.diagrams.net" modified="2021-12-11T01:47:10.734Z" agent="5.0 (Windows NT 10.0; Win64; x64) AppleWebKit/537.36 (KHTML, like Gecko) Chrome/96.0.4664.55 Safari/537.36 Edg/96.0.1054.43" etag="HPniocISyEWfgaGrhSr5" version="15.9.4" type="github">
  <diagram id="wsg9V7oTSWRnyyfRDqvo" name="第 1 页">
    <mxGraphModel dx="409" dy="459" grid="1" gridSize="10" guides="1" tooltips="1" connect="1" arrows="1" fold="1" page="1" pageScale="1" pageWidth="827" pageHeight="1169" math="0" shadow="0">
      <root>
        <mxCell id="0" />
        <mxCell id="1" parent="0" />
        <mxCell id="t6XkWxvVoRplXFCT0lHx-44" value="" style="ellipse;whiteSpace=wrap;html=1;aspect=fixed;fillColor=#fff2cc;strokeColor=#d6b656;" vertex="1" parent="1">
          <mxGeometry x="343.5" y="531.5" width="21" height="21" as="geometry" />
        </mxCell>
        <mxCell id="t6XkWxvVoRplXFCT0lHx-26" value="14" style="text;html=1;strokeColor=none;fillColor=none;align=center;verticalAlign=middle;whiteSpace=wrap;rounded=0;" vertex="1" parent="1">
          <mxGeometry x="536" y="527" width="60" height="30" as="geometry" />
        </mxCell>
        <mxCell id="t6XkWxvVoRplXFCT0lHx-2" value="" style="endArrow=none;html=1;rounded=0;jumpSize=6;strokeColor=#000000;targetPerimeterSpacing=0;endSize=6;sketch=0;jumpStyle=none;strokeWidth=2;" edge="1" parent="1">
          <mxGeometry width="50" height="50" relative="1" as="geometry">
            <mxPoint x="300" y="530" as="sourcePoint" />
            <mxPoint x="600" y="530" as="targetPoint" />
          </mxGeometry>
        </mxCell>
        <mxCell id="t6XkWxvVoRplXFCT0lHx-3" value="" style="endArrow=none;html=1;rounded=0;" edge="1" parent="1">
          <mxGeometry width="50" height="50" relative="1" as="geometry">
            <mxPoint x="458" y="520" as="sourcePoint" />
            <mxPoint x="458" y="530" as="targetPoint" />
          </mxGeometry>
        </mxCell>
        <mxCell id="t6XkWxvVoRplXFCT0lHx-4" value="" style="endArrow=none;html=1;rounded=0;" edge="1" parent="1">
          <mxGeometry width="50" height="50" relative="1" as="geometry">
            <mxPoint x="477" y="520" as="sourcePoint" />
            <mxPoint x="477" y="530" as="targetPoint" />
          </mxGeometry>
        </mxCell>
        <mxCell id="t6XkWxvVoRplXFCT0lHx-5" value="" style="endArrow=none;html=1;rounded=0;" edge="1" parent="1">
          <mxGeometry width="50" height="50" relative="1" as="geometry">
            <mxPoint x="494" y="520" as="sourcePoint" />
            <mxPoint x="494" y="530" as="targetPoint" />
          </mxGeometry>
        </mxCell>
        <mxCell id="t6XkWxvVoRplXFCT0lHx-6" value="" style="endArrow=none;html=1;rounded=0;" edge="1" parent="1">
          <mxGeometry width="50" height="50" relative="1" as="geometry">
            <mxPoint x="513" y="520" as="sourcePoint" />
            <mxPoint x="513" y="530" as="targetPoint" />
          </mxGeometry>
        </mxCell>
        <mxCell id="t6XkWxvVoRplXFCT0lHx-7" value="1" style="text;html=1;strokeColor=none;fillColor=none;align=center;verticalAlign=middle;whiteSpace=wrap;rounded=0;" vertex="1" parent="1">
          <mxGeometry x="306" y="527" width="60" height="30" as="geometry" />
        </mxCell>
        <mxCell id="t6XkWxvVoRplXFCT0lHx-8" value="" style="endArrow=none;html=1;rounded=0;" edge="1" parent="1">
          <mxGeometry width="50" height="50" relative="1" as="geometry">
            <mxPoint x="529" y="520" as="sourcePoint" />
            <mxPoint x="529" y="530" as="targetPoint" />
          </mxGeometry>
        </mxCell>
        <mxCell id="t6XkWxvVoRplXFCT0lHx-9" value="" style="endArrow=none;html=1;rounded=0;" edge="1" parent="1">
          <mxGeometry width="50" height="50" relative="1" as="geometry">
            <mxPoint x="548" y="520" as="sourcePoint" />
            <mxPoint x="548" y="530" as="targetPoint" />
          </mxGeometry>
        </mxCell>
        <mxCell id="t6XkWxvVoRplXFCT0lHx-10" value="" style="endArrow=none;html=1;rounded=0;" edge="1" parent="1">
          <mxGeometry width="50" height="50" relative="1" as="geometry">
            <mxPoint x="565" y="520" as="sourcePoint" />
            <mxPoint x="565" y="530" as="targetPoint" />
          </mxGeometry>
        </mxCell>
        <mxCell id="t6XkWxvVoRplXFCT0lHx-11" value="" style="endArrow=none;html=1;rounded=0;" edge="1" parent="1">
          <mxGeometry width="50" height="50" relative="1" as="geometry">
            <mxPoint x="318" y="520" as="sourcePoint" />
            <mxPoint x="318" y="530" as="targetPoint" />
          </mxGeometry>
        </mxCell>
        <mxCell id="t6XkWxvVoRplXFCT0lHx-12" value="" style="endArrow=none;html=1;rounded=0;" edge="1" parent="1">
          <mxGeometry width="50" height="50" relative="1" as="geometry">
            <mxPoint x="335" y="520" as="sourcePoint" />
            <mxPoint x="335" y="530" as="targetPoint" />
          </mxGeometry>
        </mxCell>
        <mxCell id="t6XkWxvVoRplXFCT0lHx-13" value="" style="endArrow=none;html=1;rounded=0;" edge="1" parent="1">
          <mxGeometry width="50" height="50" relative="1" as="geometry">
            <mxPoint x="354" y="520" as="sourcePoint" />
            <mxPoint x="354" y="530" as="targetPoint" />
          </mxGeometry>
        </mxCell>
        <mxCell id="t6XkWxvVoRplXFCT0lHx-14" value="" style="endArrow=none;html=1;rounded=0;" edge="1" parent="1">
          <mxGeometry width="50" height="50" relative="1" as="geometry">
            <mxPoint x="371" y="520" as="sourcePoint" />
            <mxPoint x="371" y="530" as="targetPoint" />
          </mxGeometry>
        </mxCell>
        <mxCell id="t6XkWxvVoRplXFCT0lHx-15" value="" style="endArrow=none;html=1;rounded=0;" edge="1" parent="1">
          <mxGeometry width="50" height="50" relative="1" as="geometry">
            <mxPoint x="390" y="520" as="sourcePoint" />
            <mxPoint x="390" y="530" as="targetPoint" />
          </mxGeometry>
        </mxCell>
        <mxCell id="t6XkWxvVoRplXFCT0lHx-16" value="" style="endArrow=none;html=1;rounded=0;" edge="1" parent="1">
          <mxGeometry width="50" height="50" relative="1" as="geometry">
            <mxPoint x="406" y="520" as="sourcePoint" />
            <mxPoint x="406" y="530" as="targetPoint" />
          </mxGeometry>
        </mxCell>
        <mxCell id="t6XkWxvVoRplXFCT0lHx-17" value="" style="endArrow=none;html=1;rounded=0;" edge="1" parent="1">
          <mxGeometry width="50" height="50" relative="1" as="geometry">
            <mxPoint x="425" y="520" as="sourcePoint" />
            <mxPoint x="425" y="530" as="targetPoint" />
          </mxGeometry>
        </mxCell>
        <mxCell id="t6XkWxvVoRplXFCT0lHx-18" value="" style="endArrow=none;html=1;rounded=0;" edge="1" parent="1">
          <mxGeometry width="50" height="50" relative="1" as="geometry">
            <mxPoint x="442" y="520" as="sourcePoint" />
            <mxPoint x="442" y="530" as="targetPoint" />
          </mxGeometry>
        </mxCell>
        <mxCell id="t6XkWxvVoRplXFCT0lHx-20" value="2" style="text;html=1;strokeColor=none;fillColor=none;align=center;verticalAlign=middle;whiteSpace=wrap;rounded=0;" vertex="1" parent="1">
          <mxGeometry x="324" y="527" width="60" height="30" as="geometry" />
        </mxCell>
        <mxCell id="t6XkWxvVoRplXFCT0lHx-21" value="3" style="text;html=1;strokeColor=none;fillColor=none;align=center;verticalAlign=middle;whiteSpace=wrap;rounded=0;" vertex="1" parent="1">
          <mxGeometry x="340" y="527" width="60" height="30" as="geometry" />
        </mxCell>
        <mxCell id="t6XkWxvVoRplXFCT0lHx-22" value="4" style="text;html=1;strokeColor=none;fillColor=none;align=center;verticalAlign=middle;whiteSpace=wrap;rounded=0;" vertex="1" parent="1">
          <mxGeometry x="359" y="527" width="60" height="30" as="geometry" />
        </mxCell>
        <mxCell id="t6XkWxvVoRplXFCT0lHx-23" value="5" style="text;html=1;strokeColor=none;fillColor=none;align=center;verticalAlign=middle;whiteSpace=wrap;rounded=0;" vertex="1" parent="1">
          <mxGeometry x="377" y="527" width="60" height="30" as="geometry" />
        </mxCell>
        <mxCell id="t6XkWxvVoRplXFCT0lHx-24" value="6" style="text;html=1;strokeColor=none;fillColor=none;align=center;verticalAlign=middle;whiteSpace=wrap;rounded=0;" vertex="1" parent="1">
          <mxGeometry x="395" y="527" width="60" height="30" as="geometry" />
        </mxCell>
        <mxCell id="t6XkWxvVoRplXFCT0lHx-25" value="13" style="text;html=1;strokeColor=none;fillColor=none;align=center;verticalAlign=middle;whiteSpace=wrap;rounded=0;" vertex="1" parent="1">
          <mxGeometry x="517" y="527" width="60" height="30" as="geometry" />
        </mxCell>
        <mxCell id="t6XkWxvVoRplXFCT0lHx-27" value="0" style="text;html=1;strokeColor=none;fillColor=none;align=center;verticalAlign=middle;whiteSpace=wrap;rounded=0;" vertex="1" parent="1">
          <mxGeometry x="288" y="527" width="60" height="30" as="geometry" />
        </mxCell>
        <mxCell id="t6XkWxvVoRplXFCT0lHx-30" value="12" style="text;html=1;strokeColor=none;fillColor=none;align=center;verticalAlign=middle;whiteSpace=wrap;rounded=0;" vertex="1" parent="1">
          <mxGeometry x="499" y="527" width="60" height="30" as="geometry" />
        </mxCell>
        <mxCell id="t6XkWxvVoRplXFCT0lHx-31" value="11" style="text;html=1;strokeColor=none;fillColor=none;align=center;verticalAlign=middle;whiteSpace=wrap;rounded=0;" vertex="1" parent="1">
          <mxGeometry x="483" y="527" width="60" height="30" as="geometry" />
        </mxCell>
        <mxCell id="t6XkWxvVoRplXFCT0lHx-32" value="10" style="text;html=1;strokeColor=none;fillColor=none;align=center;verticalAlign=middle;whiteSpace=wrap;rounded=0;" vertex="1" parent="1">
          <mxGeometry x="463" y="527" width="60" height="30" as="geometry" />
        </mxCell>
        <mxCell id="t6XkWxvVoRplXFCT0lHx-33" value="9" style="text;html=1;strokeColor=none;fillColor=none;align=center;verticalAlign=middle;whiteSpace=wrap;rounded=0;" vertex="1" parent="1">
          <mxGeometry x="446" y="527" width="60" height="30" as="geometry" />
        </mxCell>
        <mxCell id="t6XkWxvVoRplXFCT0lHx-34" value="8" style="text;html=1;strokeColor=none;fillColor=none;align=center;verticalAlign=middle;whiteSpace=wrap;rounded=0;" vertex="1" parent="1">
          <mxGeometry x="427" y="527" width="60" height="30" as="geometry" />
        </mxCell>
        <mxCell id="t6XkWxvVoRplXFCT0lHx-35" value="7" style="text;html=1;strokeColor=none;fillColor=none;align=center;verticalAlign=middle;whiteSpace=wrap;rounded=0;" vertex="1" parent="1">
          <mxGeometry x="411" y="525.5" width="61" height="33" as="geometry" />
        </mxCell>
        <mxCell id="t6XkWxvVoRplXFCT0lHx-37" value="15" style="text;html=1;strokeColor=none;fillColor=none;align=center;verticalAlign=middle;whiteSpace=wrap;rounded=0;" vertex="1" parent="1">
          <mxGeometry x="553" y="527" width="60" height="30" as="geometry" />
        </mxCell>
        <mxCell id="t6XkWxvVoRplXFCT0lHx-38" value="" style="endArrow=none;html=1;rounded=0;" edge="1" parent="1">
          <mxGeometry width="50" height="50" relative="1" as="geometry">
            <mxPoint x="582" y="520" as="sourcePoint" />
            <mxPoint x="582" y="530" as="targetPoint" />
          </mxGeometry>
        </mxCell>
        <mxCell id="t6XkWxvVoRplXFCT0lHx-40" value="" style="endArrow=async;html=1;rounded=0;sketch=0;targetPerimeterSpacing=0;strokeColor=#000000;strokeWidth=1;jumpStyle=none;jumpSize=6;endFill=0;" edge="1" parent="1">
          <mxGeometry width="50" height="50" relative="1" as="geometry">
            <mxPoint x="353" y="510" as="sourcePoint" />
            <mxPoint x="410" y="510" as="targetPoint" />
          </mxGeometry>
        </mxCell>
        <mxCell id="t6XkWxvVoRplXFCT0lHx-41" value="+14" style="text;html=1;strokeColor=none;fillColor=none;align=center;verticalAlign=middle;whiteSpace=wrap;rounded=0;" vertex="1" parent="1">
          <mxGeometry x="348" y="488" width="60" height="30" as="geometry" />
        </mxCell>
        <mxCell id="t6XkWxvVoRplXFCT0lHx-42" value="" style="endArrow=async;html=1;rounded=0;sketch=0;targetPerimeterSpacing=0;strokeColor=#000000;strokeWidth=1;jumpStyle=none;jumpSize=6;endFill=0;" edge="1" parent="1">
          <mxGeometry width="50" height="50" relative="1" as="geometry">
            <mxPoint x="353" y="556" as="sourcePoint" />
            <mxPoint x="317" y="556" as="targetPoint" />
            <Array as="points">
              <mxPoint x="347" y="556" />
              <mxPoint x="327" y="556" />
            </Array>
          </mxGeometry>
        </mxCell>
        <mxCell id="t6XkWxvVoRplXFCT0lHx-43" value="-2" style="text;html=1;strokeColor=none;fillColor=none;align=center;verticalAlign=middle;whiteSpace=wrap;rounded=0;" vertex="1" parent="1">
          <mxGeometry x="307" y="549" width="60" height="30" as="geometry" />
        </mxCell>
      </root>
    </mxGraphModel>
  </diagram>
</mxfile>
